<svg width="23" height="18" viewBox="0 0 23 18" fill="none" xmlns="http://www.w3.org/2000/svg">
<path fill-rule="evenodd" clip-rule="evenodd" d="M20.102 0.139692L3.77321 6.51125C1.06275 7.56896 -0.0863218 10.4202 1.32504 12.7015C3.24262 15.8009 6.99589 17.9065 11.3122 17.9065C17.5779 17.9065 22.6575 13.4693 22.6575 7.99636V1.58749C22.6575 0.672865 21.7989 0 20.8426 0C20.598 0 20.3466 0.044097 20.1016 0.139692H20.102Z" fill="#000A4A"/>
<path d="M0 7.99647C0 13.4697 5.0792 17.9069 11.3452 17.9069C15.6616 17.9069 19.4148 15.8013 21.3324 12.7019C22.7438 10.4206 21.5951 7.56938 18.8843 6.51167L2.55548 0.14011C1.35488 -0.328306 0 0.439229 0 1.58791V7.99678L0 7.99647Z" fill="#00C6FB"/>
</svg>
